STARTFONT 2.1
COMMENT AUTOMATICALLY GENERATED FILE. DO NOT EDIT!
COMMENT Generated with 'ucs2any.pl UTRG__12.bdf ../../../fonts/util/map-ISO8859-1 ISO8859-1'
COMMENT from an ISO10646-1 encoded source BDF font.
COMMENT ucs2any.pl by Markus Kuhn <mkuhn@acm.org>, 2000.
FONT -Adobe-Utopia-Regular-R-Normal--12-120-75-75-P-67-ISO8859-1
SIZE 12 75 75
FONTBOUNDINGBOX 12 13 -1 -3
COMMENT $Xorg: $
COMMENT ISO10646-1 extension by Markus Kuhn <mkuhn@acm.org>, 2001-03-20
STARTPROPERTIES 28
FOUNDRY "Adobe"
FAMILY_NAME "Utopia"
WEIGHT_NAME "Regular"
SLANT "R"
SETWIDTH_NAME "Normal"
ADD_STYLE_NAME ""
PIXEL_SIZE 12
POINT_SIZE 120
RESOLUTION_X 75
RESOLUTION_Y 75
SPACING "P"
AVERAGE_WIDTH 67
CHARSET_REGISTRY "ISO8859"
CHARSET_ENCODING "1"
CAP_HEIGHT 9
X_HEIGHT 6
RELATIVE_SETWIDTH 50
RELATIVE_WEIGHT 50
WEIGHT 136
FACE_NAME "Utopia Regular"
COPYRIGHT "Copyright (c) 1989, 1991 Adobe Systems Incorporated.  All rights reserved."
NOTICE "Utopia is a registered trademark of Adobe Systems Incorporated."
DESTINATION 0
FONT_ASCENT 10
FONT_DESCENT 3
DEFAULT_CHAR 0
_ADOBE_PSFONT "Utopia-Regular"
_DEC_DEVICE_FONTNAMES "PS=Utopia-Regular"
ENDPROPERTIES
CHARS 192
STARTCHAR defaultchar
ENCODING 0
SWIDTH 798 0
DWIDTH 10 0
BBX 9 9 0 0
BITMAP
AA80
0000
8080
0000
8080
0000
8080
0000
AA80
ENDCHAR
STARTCHAR space
ENCODING 32
SWIDTH 225 0
DWIDTH 3 0
BBX 0 0 0 0
BITMAP
ENDCHAR
STARTCHAR exclam
ENCODING 33
SWIDTH 242 0
DWIDTH 3 0
BBX 1 9 1 0
BITMAP
80
80
80
80
80
80
00
80
80
ENDCHAR
STARTCHAR quotedbl
ENCODING 34
SWIDTH 458 0
DWIDTH 5 0
BBX 3 3 1 6
BITMAP
A0
A0
A0
ENDCHAR
STARTCHAR numbersign
ENCODING 35
SWIDTH 530 0
DWIDTH 6 0
BBX 6 8 0 1
BITMAP
28
28
7C
28
50
F8
50
50
ENDCHAR
STARTCHAR dollar
ENCODING 36
SWIDTH 530 0
DWIDTH 6 0
BBX 5 11 0 -1
BITMAP
20
70
A8
A0
E0
70
38
28
A8
70
20
ENDCHAR
STARTCHAR percent
ENCODING 37
SWIDTH 838 0
DWIDTH 10 0
BBX 9 9 0 0
BITMAP
6200
9E00
9400
9800
6B00
1480
2480
2480
4300
ENDCHAR
STARTCHAR ampersand
ENCODING 38
SWIDTH 706 0
DWIDTH 9 0
BBX 8 9 0 0
BITMAP
30
48
48
30
52
8A
84
C6
79
ENDCHAR
STARTCHAR quotesingle
ENCODING 39
SWIDTH 278 0
DWIDTH 3 0
BBX 1 3 1 6
BITMAP
80
80
80
ENDCHAR
STARTCHAR parenleft
ENCODING 40
SWIDTH 350 0
DWIDTH 4 0
BBX 3 11 0 -2
BITMAP
20
40
80
80
80
80
80
80
80
40
20
ENDCHAR
STARTCHAR parenright
ENCODING 41
SWIDTH 350 0
DWIDTH 4 0
BBX 3 11 0 -2
BITMAP
80
40
20
20
20
20
20
20
20
40
80
ENDCHAR
STARTCHAR asterisk
ENCODING 42
SWIDTH 412 0
DWIDTH 5 0
BBX 5 5 0 4
BITMAP
20
A8
70
A8
20
ENDCHAR
STARTCHAR plus
ENCODING 43
SWIDTH 570 0
DWIDTH 7 0
BBX 5 5 1 1
BITMAP
20
20
F8
20
20
ENDCHAR
STARTCHAR comma
ENCODING 44
SWIDTH 265 0
DWIDTH 3 0
BBX 2 3 0 -1
BITMAP
40
40
80
ENDCHAR
STARTCHAR hyphen
ENCODING 45
SWIDTH 392 0
DWIDTH 5 0
BBX 3 1 1 3
BITMAP
E0
ENDCHAR
STARTCHAR period
ENCODING 46
SWIDTH 265 0
DWIDTH 3 0
BBX 1 2 1 0
BITMAP
80
80
ENDCHAR
STARTCHAR slash
ENCODING 47
SWIDTH 460 0
DWIDTH 6 0
BBX 4 9 1 0
BITMAP
10
10
20
20
20
40
40
80
80
ENDCHAR
STARTCHAR zero
ENCODING 48
SWIDTH 530 0
DWIDTH 6 0
BBX 5 9 0 0
BITMAP
70
D8
88
88
88
88
88
D8
70
ENDCHAR
STARTCHAR one
ENCODING 49
SWIDTH 530 0
DWIDTH 6 0
BBX 3 9 1 0
BITMAP
40
C0
40
40
40
40
40
40
E0
ENDCHAR
STARTCHAR two
ENCODING 50
SWIDTH 530 0
DWIDTH 6 0
BBX 5 9 0 0
BITMAP
70
D8
88
18
30
60
C0
88
F8
ENDCHAR
STARTCHAR three
ENCODING 51
SWIDTH 530 0
DWIDTH 6 0
BBX 5 9 0 0
BITMAP
70
C8
08
18
70
08
08
D8
70
ENDCHAR
STARTCHAR four
ENCODING 52
SWIDTH 530 0
DWIDTH 6 0
BBX 5 9 0 0
BITMAP
30
20
60
50
50
90
F8
10
38
ENDCHAR
STARTCHAR five
ENCODING 53
SWIDTH 530 0
DWIDTH 6 0
BBX 5 9 0 0
BITMAP
F8
80
80
F0
98
08
08
D8
70
ENDCHAR
STARTCHAR six
ENCODING 54
SWIDTH 530 0
DWIDTH 6 0
BBX 5 9 0 0
BITMAP
70
D8
80
B0
D8
88
88
D8
70
ENDCHAR
STARTCHAR seven
ENCODING 55
SWIDTH 530 0
DWIDTH 6 0
BBX 5 9 0 0
BITMAP
F8
88
18
10
30
20
60
40
40
ENDCHAR
STARTCHAR eight
ENCODING 56
SWIDTH 530 0
DWIDTH 6 0
BBX 5 9 0 0
BITMAP
70
98
88
C8
70
98
88
C8
70
ENDCHAR
STARTCHAR nine
ENCODING 57
SWIDTH 530 0
DWIDTH 6 0
BBX 5 9 0 0
BITMAP
70
D8
88
88
D8
68
08
D8
70
ENDCHAR
STARTCHAR colon
ENCODING 58
SWIDTH 265 0
DWIDTH 3 0
BBX 1 6 1 0
BITMAP
80
80
00
00
80
80
ENDCHAR
STARTCHAR semicolon
ENCODING 59
SWIDTH 265 0
DWIDTH 3 0
BBX 2 7 0 -1
BITMAP
40
40
00
00
40
40
80
ENDCHAR
STARTCHAR less
ENCODING 60
SWIDTH 570 0
DWIDTH 7 0
BBX 6 5 0 1
BITMAP
0C
30
C0
30
0C
ENDCHAR
STARTCHAR equal
ENCODING 61
SWIDTH 570 0
DWIDTH 7 0
BBX 5 3 1 2
BITMAP
F8
00
F8
ENDCHAR
STARTCHAR greater
ENCODING 62
SWIDTH 570 0
DWIDTH 7 0
BBX 6 5 0 1
BITMAP
C0
30
0C
30
C0
ENDCHAR
STARTCHAR question
ENCODING 63
SWIDTH 389 0
DWIDTH 5 0
BBX 4 9 0 0
BITMAP
60
90
10
20
40
60
00
40
40
ENDCHAR
STARTCHAR at
ENCODING 64
SWIDTH 793 0
DWIDTH 11 0
BBX 9 9 1 0
BITMAP
3E00
4100
8E80
9280
A480
AD00
B600
4000
3E00
ENDCHAR
STARTCHAR A
ENCODING 65
SWIDTH 635 0
DWIDTH 8 0
BBX 9 9 -1 0
BITMAP
0800
0C00
1400
1600
2200
3E00
2300
4100
E380
ENDCHAR
STARTCHAR B
ENCODING 66
SWIDTH 646 0
DWIDTH 8 0
BBX 7 9 0 0
BITMAP
FC
42
42
44
7C
42
42
46
FC
ENDCHAR
STARTCHAR C
ENCODING 67
SWIDTH 684 0
DWIDTH 8 0
BBX 7 9 0 0
BITMAP
3C
46
C0
80
80
80
C2
46
3C
ENDCHAR
STARTCHAR D
ENCODING 68
SWIDTH 779 0
DWIDTH 9 0
BBX 8 9 0 0
BITMAP
FC
42
43
41
41
41
43
42
FC
ENDCHAR
STARTCHAR E
ENCODING 69
SWIDTH 606 0
DWIDTH 8 0
BBX 7 9 0 0
BITMAP
FC
44
40
48
78
48
40
42
FE
ENDCHAR
STARTCHAR F
ENCODING 70
SWIDTH 580 0
DWIDTH 7 0
BBX 6 9 0 0
BITMAP
FC
44
40
48
78
48
40
40
E0
ENDCHAR
STARTCHAR G
ENCODING 71
SWIDTH 734 0
DWIDTH 9 0
BBX 8 9 0 0
BITMAP
3C
46
C0
80
80
87
C2
42
3C
ENDCHAR
STARTCHAR H
ENCODING 72
SWIDTH 798 0
DWIDTH 10 0
BBX 9 9 0 0
BITMAP
E380
4100
4100
4100
7F00
4100
4100
4100
E380
ENDCHAR
STARTCHAR I
ENCODING 73
SWIDTH 349 0
DWIDTH 4 0
BBX 3 9 0 0
BITMAP
E0
40
40
40
40
40
40
40
E0
ENDCHAR
STARTCHAR J
ENCODING 74
SWIDTH 350 0
DWIDTH 4 0
BBX 4 11 -1 -2
BITMAP
70
20
20
20
20
20
20
20
20
20
C0
ENDCHAR
STARTCHAR K
ENCODING 75
SWIDTH 658 0
DWIDTH 8 0
BBX 8 9 0 0
BITMAP
E6
44
48
50
70
58
4C
46
E3
ENDCHAR
STARTCHAR L
ENCODING 76
SWIDTH 568 0
DWIDTH 7 0
BBX 6 9 0 0
BITMAP
E0
40
40
40
40
40
40
44
FC
ENDCHAR
STARTCHAR M
ENCODING 77
SWIDTH 944 0
DWIDTH 12 0
BBX 11 9 0 0
BITMAP
E0E0
60C0
7140
5140
5A40
4A40
4C40
4440
E0E0
ENDCHAR
STARTCHAR N
ENCODING 78
SWIDTH 780 0
DWIDTH 10 0
BBX 9 9 0 0
BITMAP
E380
6100
5100
5900
4900
4500
4700
4300
E100
ENDCHAR
STARTCHAR O
ENCODING 79
SWIDTH 762 0
DWIDTH 9 0
BBX 8 9 0 0
BITMAP
3C
42
C3
81
81
81
C3
42
3C
ENDCHAR
STARTCHAR P
ENCODING 80
SWIDTH 600 0
DWIDTH 8 0
BBX 7 9 0 0
BITMAP
FC
42
42
46
7C
40
40
40
E0
ENDCHAR
STARTCHAR Q
ENCODING 81
SWIDTH 762 0
DWIDTH 9 0
BBX 8 12 0 -3
BITMAP
3C
42
C3
81
81
81
C3
42
3C
0C
04
03
ENDCHAR
STARTCHAR R
ENCODING 82
SWIDTH 644 0
DWIDTH 8 0
BBX 8 9 0 0
BITMAP
FC
42
42
44
78
4C
44
46
E3
ENDCHAR
STARTCHAR S
ENCODING 83
SWIDTH 541 0
DWIDTH 7 0
BBX 6 9 0 0
BITMAP
78
CC
80
60
38
0C
84
CC
78
ENDCHAR
STARTCHAR T
ENCODING 84
SWIDTH 621 0
DWIDTH 8 0
BBX 7 9 0 0
BITMAP
FE
92
10
10
10
10
10
10
38
ENDCHAR
STARTCHAR U
ENCODING 85
SWIDTH 791 0
DWIDTH 10 0
BBX 9 9 0 0
BITMAP
E380
4100
4100
4100
4100
4100
4100
6300
3E00
ENDCHAR
STARTCHAR V
ENCODING 86
SWIDTH 634 0
DWIDTH 8 0
BBX 9 9 -1 0
BITMAP
E380
4100
6200
2200
2200
3400
1400
1800
0800
ENDCHAR
STARTCHAR W
ENCODING 87
SWIDTH 940 0
DWIDTH 12 0
BBX 11 9 0 0
BITMAP
E0E0
4440
4440
6640
2A80
2A80
3B80
1100
1100
ENDCHAR
STARTCHAR X
ENCODING 88
SWIDTH 624 0
DWIDTH 8 0
BBX 7 9 0 0
BITMAP
EE
44
28
38
10
38
28
44
EE
ENDCHAR
STARTCHAR Y
ENCODING 89
SWIDTH 588 0
DWIDTH 8 0
BBX 7 9 0 0
BITMAP
EE
44
64
28
38
10
10
10
38
ENDCHAR
STARTCHAR Z
ENCODING 90
SWIDTH 610 0
DWIDTH 8 0
BBX 7 9 0 0
BITMAP
FE
8C
08
10
30
20
40
C2
FE
ENDCHAR
STARTCHAR bracketleft
ENCODING 91
SWIDTH 330 0
DWIDTH 4 0
BBX 2 11 1 -2
BITMAP
C0
80
80
80
80
80
80
80
80
80
C0
ENDCHAR
STARTCHAR backslash
ENCODING 92
SWIDTH 460 0
DWIDTH 6 0
BBX 4 9 1 0
BITMAP
80
80
40
40
40
20
20
10
10
ENDCHAR
STARTCHAR bracketright
ENCODING 93
SWIDTH 330 0
DWIDTH 4 0
BBX 2 11 0 -2
BITMAP
C0
40
40
40
40
40
40
40
40
40
C0
ENDCHAR
STARTCHAR asciicircum
ENCODING 94
SWIDTH 570 0
DWIDTH 7 0
BBX 5 6 1 3
BITMAP
20
20
50
50
88
88
ENDCHAR
STARTCHAR underscore
ENCODING 95
SWIDTH 500 0
DWIDTH 6 0
BBX 6 1 0 -2
BITMAP
FC
ENDCHAR
STARTCHAR grave
ENCODING 96
SWIDTH 400 0
DWIDTH 5 0
BBX 3 2 1 7
BITMAP
C0
20
ENDCHAR
STARTCHAR a
ENCODING 97
SWIDTH 523 0
DWIDTH 6 0
BBX 5 6 0 0
BITMAP
E0
10
70
D0
90
78
ENDCHAR
STARTCHAR b
ENCODING 98
SWIDTH 598 0
DWIDTH 7 0
BBX 7 10 -1 0
BITMAP
C0
40
40
40
5C
66
42
42
66
5C
ENDCHAR
STARTCHAR c
ENCODING 99
SWIDTH 496 0
DWIDTH 6 0
BBX 5 6 0 0
BITMAP
70
D8
80
80
C8
70
ENDCHAR
STARTCHAR d
ENCODING 100
SWIDTH 598 0
DWIDTH 8 0
BBX 7 10 0 0
BITMAP
0C
04
04
04
74
CC
84
84
CC
76
ENDCHAR
STARTCHAR e
ENCODING 101
SWIDTH 514 0
DWIDTH 6 0
BBX 5 6 0 0
BITMAP
70
88
F8
80
C8
70
ENDCHAR
STARTCHAR f
ENCODING 102
SWIDTH 319 0
DWIDTH 4 0
BBX 4 10 0 0
BITMAP
30
40
40
40
F0
40
40
40
40
E0
ENDCHAR
STARTCHAR g
ENCODING 103
SWIDTH 520 0
DWIDTH 7 0
BBX 6 9 0 -3
BITMAP
7C
88
88
70
20
78
8C
84
78
ENDCHAR
STARTCHAR h
ENCODING 104
SWIDTH 607 0
DWIDTH 8 0
BBX 7 10 0 0
BITMAP
C0
40
40
40
58
6C
44
44
44
EE
ENDCHAR
STARTCHAR i
ENCODING 105
SWIDTH 291 0
DWIDTH 4 0
BBX 3 9 0 0
BITMAP
40
40
00
C0
40
40
40
40
E0
ENDCHAR
STARTCHAR j
ENCODING 106
SWIDTH 280 0
DWIDTH 4 0
BBX 3 12 -1 -3
BITMAP
20
20
00
60
20
20
20
20
20
20
20
C0
ENDCHAR
STARTCHAR k
ENCODING 107
SWIDTH 524 0
DWIDTH 7 0
BBX 7 10 0 0
BITMAP
C0
40
40
40
4C
50
70
58
4C
E6
ENDCHAR
STARTCHAR l
ENCODING 108
SWIDTH 279 0
DWIDTH 4 0
BBX 3 10 0 0
BITMAP
C0
40
40
40
40
40
40
40
40
E0
ENDCHAR
STARTCHAR m
ENCODING 109
SWIDTH 923 0
DWIDTH 12 0
BBX 11 6 0 0
BITMAP
D980
6EC0
4440
4440
4440
EEE0
ENDCHAR
STARTCHAR n
ENCODING 110
SWIDTH 619 0
DWIDTH 8 0
BBX 7 6 0 0
BITMAP
D8
6C
44
44
44
EE
ENDCHAR
STARTCHAR o
ENCODING 111
SWIDTH 577 0
DWIDTH 7 0
BBX 6 6 0 0
BITMAP
78
CC
84
84
CC
78
ENDCHAR
STARTCHAR p
ENCODING 112
SWIDTH 608 0
DWIDTH 8 0
BBX 7 9 0 -3
BITMAP
DC
66
42
42
66
5C
40
40
E0
ENDCHAR
STARTCHAR q
ENCODING 113
SWIDTH 591 0
DWIDTH 7 0
BBX 7 9 0 -3
BITMAP
74
CC
84
84
CC
74
04
04
0E
ENDCHAR
STARTCHAR r
ENCODING 114
SWIDTH 389 0
DWIDTH 5 0
BBX 5 6 0 0
BITMAP
D8
60
40
40
40
E0
ENDCHAR
STARTCHAR s
ENCODING 115
SWIDTH 436 0
DWIDTH 5 0
BBX 4 6 0 0
BITMAP
70
90
C0
30
90
E0
ENDCHAR
STARTCHAR t
ENCODING 116
SWIDTH 344 0
DWIDTH 5 0
BBX 4 7 0 0
BITMAP
40
F0
40
40
40
40
30
ENDCHAR
STARTCHAR u
ENCODING 117
SWIDTH 606 0
DWIDTH 8 0
BBX 7 6 0 0
BITMAP
CC
44
44
44
6C
36
ENDCHAR
STARTCHAR v
ENCODING 118
SWIDTH 504 0
DWIDTH 6 0
BBX 7 6 -1 0
BITMAP
EE
44
64
28
38
10
ENDCHAR
STARTCHAR w
ENCODING 119
SWIDTH 768 0
DWIDTH 10 0
BBX 9 6 0 0
BITMAP
EB80
4900
6D00
2500
3600
1200
ENDCHAR
STARTCHAR x
ENCODING 120
SWIDTH 486 0
DWIDTH 7 0
BBX 6 6 0 0
BITMAP
EC
48
30
30
48
DC
ENDCHAR
STARTCHAR y
ENCODING 121
SWIDTH 506 0
DWIDTH 6 0
BBX 7 9 -1 -3
BITMAP
EE
44
64
28
38
10
10
20
60
ENDCHAR
STARTCHAR z
ENCODING 122
SWIDTH 480 0
DWIDTH 6 0
BBX 5 6 0 0
BITMAP
F8
90
20
40
88
F8
ENDCHAR
STARTCHAR braceleft
ENCODING 123
SWIDTH 340 0
DWIDTH 4 0
BBX 3 11 0 -2
BITMAP
20
40
40
40
40
80
40
40
40
40
20
ENDCHAR
STARTCHAR bar
ENCODING 124
SWIDTH 228 0
DWIDTH 3 0
BBX 1 9 1 0
BITMAP
80
80
80
80
80
80
80
80
80
ENDCHAR
STARTCHAR braceright
ENCODING 125
SWIDTH 340 0
DWIDTH 4 0
BBX 3 11 0 -2
BITMAP
80
40
40
40
40
20
40
40
40
40
80
ENDCHAR
STARTCHAR asciitilde
ENCODING 126
SWIDTH 570 0
DWIDTH 7 0
BBX 5 2 1 3
BITMAP
68
B0
ENDCHAR
STARTCHAR space
ENCODING 160
SWIDTH 225 0
DWIDTH 3 0
BBX 0 0 0 0
BITMAP
ENDCHAR
STARTCHAR exclamdown
ENCODING 161
SWIDTH 242 0
DWIDTH 3 0
BBX 1 9 1 -3
BITMAP
80
80
00
80
80
80
80
80
80
ENDCHAR
STARTCHAR cent
ENCODING 162
SWIDTH 530 0
DWIDTH 6 0
BBX 5 8 0 0
BITMAP
20
70
A8
A0
A0
A8
70
20
ENDCHAR
STARTCHAR sterling
ENCODING 163
SWIDTH 530 0
DWIDTH 6 0
BBX 5 9 0 0
BITMAP
70
98
80
80
40
F8
20
48
F8
ENDCHAR
STARTCHAR currency
ENCODING 164
SWIDTH 530 0
DWIDTH 6 0
BBX 5 7 0 1
BITMAP
88
70
88
88
88
70
88
ENDCHAR
STARTCHAR yen
ENCODING 165
SWIDTH 530 0
DWIDTH 6 0
BBX 7 9 -1 0
BITMAP
C6
44
28
28
7C
10
7C
10
38
ENDCHAR
STARTCHAR brokenbar
ENCODING 166
SWIDTH 228 0
DWIDTH 3 0
BBX 1 9 1 0
BITMAP
80
80
80
80
00
80
80
80
80
ENDCHAR
STARTCHAR section
ENCODING 167
SWIDTH 554 0
DWIDTH 7 0
BBX 6 11 0 -2
BITMAP
38
48
60
90
C8
64
34
18
08
48
70
ENDCHAR
STARTCHAR dieresis
ENCODING 168
SWIDTH 400 0
DWIDTH 5 0
BBX 3 1 1 7
BITMAP
A0
ENDCHAR
STARTCHAR copyright
ENCODING 169
SWIDTH 818 0
DWIDTH 10 0
BBX 9 9 0 0
BITMAP
3E00
4100
9C80
A280
A080
A280
9C80
4100
3E00
ENDCHAR
STARTCHAR ordfeminine
ENCODING 170
SWIDTH 390 0
DWIDTH 5 0
BBX 4 4 0 4
BITMAP
C0
20
60
B0
ENDCHAR
STARTCHAR guillemotleft
ENCODING 171
SWIDTH 442 0
DWIDTH 7 0
BBX 6 5 0 1
BITMAP
24
48
90
48
24
ENDCHAR
STARTCHAR logicalnot
ENCODING 172
SWIDTH 570 0
DWIDTH 7 0
BBX 5 3 1 2
BITMAP
F8
08
08
ENDCHAR
STARTCHAR hyphen
ENCODING 173
SWIDTH 392 0
DWIDTH 5 0
BBX 3 1 1 3
BITMAP
E0
ENDCHAR
STARTCHAR registered
ENCODING 174
SWIDTH 818 0
DWIDTH 10 0
BBX 9 9 0 0
BITMAP
3E00
4100
BC80
9280
9C80
9480
B280
4100
3E00
ENDCHAR
STARTCHAR macron
ENCODING 175
SWIDTH 400 0
DWIDTH 5 0
BBX 4 1 0 7
BITMAP
F0
ENDCHAR
STARTCHAR degree
ENCODING 176
SWIDTH 350 0
DWIDTH 5 0
BBX 4 4 0 5
BITMAP
60
90
90
60
ENDCHAR
STARTCHAR plusminus
ENCODING 177
SWIDTH 570 0
DWIDTH 7 0
BBX 5 7 1 0
BITMAP
20
20
F8
20
20
00
F8
ENDCHAR
STARTCHAR twosuperior
ENCODING 178
SWIDTH 380 0
DWIDTH 5 0
BBX 4 5 0 4
BITMAP
60
90
20
40
F0
ENDCHAR
STARTCHAR threesuperior
ENCODING 179
SWIDTH 380 0
DWIDTH 5 0
BBX 4 5 0 4
BITMAP
60
90
20
90
60
ENDCHAR
STARTCHAR acute
ENCODING 180
SWIDTH 400 0
DWIDTH 5 0
BBX 3 2 1 7
BITMAP
60
80
ENDCHAR
STARTCHAR mu
ENCODING 181
SWIDTH 606 0
DWIDTH 8 0
BBX 7 9 0 -3
BITMAP
CC
44
44
44
6C
76
40
40
40
ENDCHAR
STARTCHAR paragraph
ENCODING 182
SWIDTH 555 0
DWIDTH 7 0
BBX 6 11 0 -2
BITMAP
6C
E8
E8
E8
E8
68
08
08
08
08
18
ENDCHAR
STARTCHAR periodcentered
ENCODING 183
SWIDTH 265 0
DWIDTH 3 0
BBX 1 2 1 3
BITMAP
80
80
ENDCHAR
STARTCHAR cedilla
ENCODING 184
SWIDTH 400 0
DWIDTH 5 0
BBX 2 3 1 -3
BITMAP
80
40
C0
ENDCHAR
STARTCHAR onesuperior
ENCODING 185
SWIDTH 380 0
DWIDTH 4 0
BBX 3 5 0 4
BITMAP
40
C0
40
40
E0
ENDCHAR
STARTCHAR ordmasculine
ENCODING 186
SWIDTH 398 0
DWIDTH 5 0
BBX 4 4 0 4
BITMAP
60
90
90
60
ENDCHAR
STARTCHAR guillemotright
ENCODING 187
SWIDTH 442 0
DWIDTH 7 0
BBX 6 5 0 1
BITMAP
90
48
24
48
90
ENDCHAR
STARTCHAR onequarter
ENCODING 188
SWIDTH 860 0
DWIDTH 11 0
BBX 9 9 1 0
BITMAP
4200
C200
4400
4800
E900
1300
2500
2780
4100
ENDCHAR
STARTCHAR onehalf
ENCODING 189
SWIDTH 860 0
DWIDTH 11 0
BBX 9 9 1 0
BITMAP
4200
C200
4400
4800
EB00
1480
2100
2200
4780
ENDCHAR
STARTCHAR threequarters
ENCODING 190
SWIDTH 860 0
DWIDTH 11 0
BBX 9 9 1 0
BITMAP
6200
9200
2400
9800
6900
1300
2500
2780
4100
ENDCHAR
STARTCHAR questiondown
ENCODING 191
SWIDTH 389 0
DWIDTH 5 0
BBX 4 9 0 -3
BITMAP
20
20
00
60
20
40
80
90
60
ENDCHAR
STARTCHAR Agrave
ENCODING 192
SWIDTH 635 0
DWIDTH 8 0
BBX 9 10 -1 0
BITMAP
3000
0800
0000
0800
1400
1400
2200
3E00
4100
E380
ENDCHAR
STARTCHAR Aacute
ENCODING 193
SWIDTH 635 0
DWIDTH 8 0
BBX 9 10 -1 0
BITMAP
0600
0800
0000
0800
1400
1400
2200
3E00
4100
E380
ENDCHAR
STARTCHAR Acircumflex
ENCODING 194
SWIDTH 635 0
DWIDTH 8 0
BBX 9 10 -1 0
BITMAP
0800
1400
0000
0800
1400
1400
2200
3E00
4100
E380
ENDCHAR
STARTCHAR Atilde
ENCODING 195
SWIDTH 635 0
DWIDTH 8 0
BBX 9 10 -1 0
BITMAP
1A00
2C00
0000
0800
1400
1400
2200
3E00
4100
E380
ENDCHAR
STARTCHAR Adieresis
ENCODING 196
SWIDTH 635 0
DWIDTH 8 0
BBX 9 9 -1 0
BITMAP
1400
0000
0800
1400
1400
2200
3E00
4100
E380
ENDCHAR
STARTCHAR Aring
ENCODING 197
SWIDTH 627 0
DWIDTH 8 0
BBX 9 10 -1 0
BITMAP
1800
2400
1800
0800
1400
1400
2200
3E00
4100
E380
ENDCHAR
STARTCHAR AE
ENCODING 198
SWIDTH 876 0
DWIDTH 11 0
BBX 11 9 -1 0
BITMAP
3FC0
1440
1400
2480
3F80
2480
4400
4420
EFE0
ENDCHAR
STARTCHAR Ccedilla
ENCODING 199
SWIDTH 680 0
DWIDTH 8 0
BBX 7 12 0 -3
BITMAP
3C
46
C0
80
80
80
C2
46
3C
10
08
18
ENDCHAR
STARTCHAR Egrave
ENCODING 200
SWIDTH 606 0
DWIDTH 8 0
BBX 7 10 0 0
BITMAP
60
10
00
FC
44
40
78
40
42
FE
ENDCHAR
STARTCHAR Eacute
ENCODING 201
SWIDTH 606 0
DWIDTH 8 0
BBX 7 10 0 0
BITMAP
18
20
00
FC
44
40
78
40
42
FE
ENDCHAR
STARTCHAR Ecircumflex
ENCODING 202
SWIDTH 606 0
DWIDTH 8 0
BBX 7 10 0 0
BITMAP
20
50
00
FC
44
40
78
40
42
FE
ENDCHAR
STARTCHAR Edieresis
ENCODING 203
SWIDTH 606 0
DWIDTH 8 0
BBX 7 9 0 0
BITMAP
50
00
FC
44
40
78
40
42
FE
ENDCHAR
STARTCHAR Igrave
ENCODING 204
SWIDTH 349 0
DWIDTH 4 0
BBX 3 10 0 0
BITMAP
C0
20
00
E0
40
40
40
40
40
E0
ENDCHAR
STARTCHAR Iacute
ENCODING 205
SWIDTH 349 0
DWIDTH 4 0
BBX 3 10 0 0
BITMAP
60
80
00
E0
40
40
40
40
40
E0
ENDCHAR
STARTCHAR Icircumflex
ENCODING 206
SWIDTH 349 0
DWIDTH 4 0
BBX 3 10 0 0
BITMAP
40
A0
00
E0
40
40
40
40
40
E0
ENDCHAR
STARTCHAR Idieresis
ENCODING 207
SWIDTH 349 0
DWIDTH 4 0
BBX 3 9 0 0
BITMAP
A0
00
E0
40
40
40
40
40
E0
ENDCHAR
STARTCHAR Eth
ENCODING 208
SWIDTH 785 0
DWIDTH 9 0
BBX 8 9 0 0
BITMAP
FC
42
43
41
F1
41
43
42
FC
ENDCHAR
STARTCHAR Ntilde
ENCODING 209
SWIDTH 780 0
DWIDTH 10 0
BBX 9 10 0 0
BITMAP
1A00
2C00
0000
C380
6100
5100
4900
4500
4300
E100
ENDCHAR
STARTCHAR Ograve
ENCODING 210
SWIDTH 762 0
DWIDTH 9 0
BBX 8 10 0 0
BITMAP
30
08
00
3C
42
81
81
81
42
3C
ENDCHAR
STARTCHAR Oacute
ENCODING 211
SWIDTH 762 0
DWIDTH 9 0
BBX 8 10 0 0
BITMAP
0C
10
00
3C
42
81
81
81
42
3C
ENDCHAR
STARTCHAR Ocircumflex
ENCODING 212
SWIDTH 762 0
DWIDTH 9 0
BBX 8 10 0 0
BITMAP
10
28
00
3C
42
81
81
81
42
3C
ENDCHAR
STARTCHAR Otilde
ENCODING 213
SWIDTH 762 0
DWIDTH 9 0
BBX 8 10 0 0
BITMAP
34
58
00
3C
42
81
81
81
42
3C
ENDCHAR
STARTCHAR Odieresis
ENCODING 214
SWIDTH 762 0
DWIDTH 9 0
BBX 8 9 0 0
BITMAP
28
00
3C
42
81
81
81
42
3C
ENDCHAR
STARTCHAR multiply
ENCODING 215
SWIDTH 570 0
DWIDTH 7 0
BBX 5 5 1 1
BITMAP
88
50
20
50
88
ENDCHAR
STARTCHAR Oslash
ENCODING 216
SWIDTH 762 0
DWIDTH 9 0
BBX 8 9 0 0
BITMAP
3D
42
C5
89
91
91
A3
42
BC
ENDCHAR
STARTCHAR Ugrave
ENCODING 217
SWIDTH 791 0
DWIDTH 10 0
BBX 9 10 0 0
BITMAP
3000
0800
0000
E380
4100
4100
4100
4100
2200
1C00
ENDCHAR
STARTCHAR Uacute
ENCODING 218
SWIDTH 791 0
DWIDTH 10 0
BBX 9 10 0 0
BITMAP
0C00
1000
0000
E380
4100
4100
4100
4100
2200
1C00
ENDCHAR
STARTCHAR Ucircumflex
ENCODING 219
SWIDTH 791 0
DWIDTH 10 0
BBX 9 10 0 0
BITMAP
0800
1400
0000
E380
4100
4100
4100
4100
2200
1C00
ENDCHAR
STARTCHAR Udieresis
ENCODING 220
SWIDTH 791 0
DWIDTH 10 0
BBX 9 9 0 0
BITMAP
1400
0000
E380
4100
4100
4100
4100
2200
1C00
ENDCHAR
STARTCHAR Yacute
ENCODING 221
SWIDTH 588 0
DWIDTH 8 0
BBX 7 10 0 0
BITMAP
0C
10
00
EE
44
28
28
10
10
38
ENDCHAR
STARTCHAR Thorn
ENCODING 222
SWIDTH 593 0
DWIDTH 8 0
BBX 7 9 0 0
BITMAP
E0
40
7C
42
42
46
7C
40
E0
ENDCHAR
STARTCHAR germandbls
ENCODING 223
SWIDTH 601 0
DWIDTH 8 0
BBX 7 10 0 0
BITMAP
38
44
44
48
50
58
4C
46
52
DC
ENDCHAR
STARTCHAR agrave
ENCODING 224
SWIDTH 523 0
DWIDTH 6 0
BBX 5 9 0 0
BITMAP
C0
20
00
E0
10
70
D0
90
78
ENDCHAR
STARTCHAR aacute
ENCODING 225
SWIDTH 523 0
DWIDTH 6 0
BBX 5 9 0 0
BITMAP
60
80
00
E0
10
70
D0
90
78
ENDCHAR
STARTCHAR acircumflex
ENCODING 226
SWIDTH 523 0
DWIDTH 6 0
BBX 5 9 0 0
BITMAP
40
A0
00
E0
10
70
D0
90
78
ENDCHAR
STARTCHAR atilde
ENCODING 227
SWIDTH 523 0
DWIDTH 6 0
BBX 6 9 -1 0
BITMAP
68
B0
00
70
08
38
68
48
3C
ENDCHAR
STARTCHAR adieresis
ENCODING 228
SWIDTH 523 0
DWIDTH 6 0
BBX 5 8 0 0
BITMAP
A0
00
E0
10
70
D0
90
78
ENDCHAR
STARTCHAR aring
ENCODING 229
SWIDTH 523 0
DWIDTH 6 0
BBX 5 10 0 0
BITMAP
60
90
60
00
E0
10
70
D0
90
78
ENDCHAR
STARTCHAR ae
ENCODING 230
SWIDTH 797 0
DWIDTH 10 0
BBX 8 6 1 0
BITMAP
EE
11
7F
D0
99
6E
ENDCHAR
STARTCHAR ccedilla
ENCODING 231
SWIDTH 496 0
DWIDTH 6 0
BBX 5 9 0 -3
BITMAP
70
D8
80
80
C8
70
40
20
60
ENDCHAR
STARTCHAR egrave
ENCODING 232
SWIDTH 514 0
DWIDTH 6 0
BBX 5 9 0 0
BITMAP
60
10
00
70
88
F8
80
C8
70
ENDCHAR
STARTCHAR eacute
ENCODING 233
SWIDTH 514 0
DWIDTH 6 0
BBX 5 9 0 0
BITMAP
30
40
00
70
88
F8
80
C8
70
ENDCHAR
STARTCHAR ecircumflex
ENCODING 234
SWIDTH 514 0
DWIDTH 6 0
BBX 5 9 0 0
BITMAP
20
50
00
70
88
F8
80
C8
70
ENDCHAR
STARTCHAR edieresis
ENCODING 235
SWIDTH 514 0
DWIDTH 6 0
BBX 5 8 0 0
BITMAP
50
00
70
88
F8
80
C8
70
ENDCHAR
STARTCHAR igrave
ENCODING 236
SWIDTH 291 0
DWIDTH 4 0
BBX 3 9 0 0
BITMAP
C0
20
00
C0
40
40
40
40
E0
ENDCHAR
STARTCHAR iacute
ENCODING 237
SWIDTH 291 0
DWIDTH 4 0
BBX 3 9 0 0
BITMAP
60
80
00
C0
40
40
40
40
E0
ENDCHAR
STARTCHAR icircumflex
ENCODING 238
SWIDTH 291 0
DWIDTH 4 0
BBX 3 9 0 0
BITMAP
40
A0
00
C0
40
40
40
40
E0
ENDCHAR
STARTCHAR idieresis
ENCODING 239
SWIDTH 291 0
DWIDTH 4 0
BBX 3 8 0 0
BITMAP
A0
00
C0
40
40
40
40
E0
ENDCHAR
STARTCHAR eth
ENCODING 240
SWIDTH 577 0
DWIDTH 7 0
BBX 6 9 0 0
BITMAP
28
10
28
78
CC
84
84
CC
78
ENDCHAR
STARTCHAR ntilde
ENCODING 241
SWIDTH 619 0
DWIDTH 8 0
BBX 7 9 0 0
BITMAP
34
58
00
D8
6C
44
44
44
EE
ENDCHAR
STARTCHAR ograve
ENCODING 242
SWIDTH 577 0
DWIDTH 7 0
BBX 6 9 0 0
BITMAP
60
10
00
78
CC
84
84
CC
78
ENDCHAR
STARTCHAR oacute
ENCODING 243
SWIDTH 577 0
DWIDTH 7 0
BBX 6 9 0 0
BITMAP
18
20
00
78
CC
84
84
CC
78
ENDCHAR
STARTCHAR ocircumflex
ENCODING 244
SWIDTH 577 0
DWIDTH 7 0
BBX 6 9 0 0
BITMAP
20
50
00
78
CC
84
84
CC
78
ENDCHAR
STARTCHAR otilde
ENCODING 245
SWIDTH 577 0
DWIDTH 7 0
BBX 6 9 0 0
BITMAP
68
B0
00
78
CC
84
84
CC
78
ENDCHAR
STARTCHAR odieresis
ENCODING 246
SWIDTH 577 0
DWIDTH 7 0
BBX 6 8 0 0
BITMAP
50
00
78
CC
84
84
CC
78
ENDCHAR
STARTCHAR divide
ENCODING 247
SWIDTH 570 0
DWIDTH 7 0
BBX 5 5 1 1
BITMAP
20
00
F8
00
20
ENDCHAR
STARTCHAR oslash
ENCODING 248
SWIDTH 577 0
DWIDTH 7 0
BBX 6 8 0 -1
BITMAP
04
78
CC
94
A4
CC
78
80
ENDCHAR
STARTCHAR ugrave
ENCODING 249
SWIDTH 606 0
DWIDTH 8 0
BBX 7 9 0 0
BITMAP
30
08
00
CC
44
44
44
6C
36
ENDCHAR
STARTCHAR uacute
ENCODING 250
SWIDTH 606 0
DWIDTH 8 0
BBX 7 9 0 0
BITMAP
18
20
00
CC
44
44
44
6C
36
ENDCHAR
STARTCHAR ucircumflex
ENCODING 251
SWIDTH 606 0
DWIDTH 8 0
BBX 7 9 0 0
BITMAP
10
28
00
CC
44
44
44
6C
36
ENDCHAR
STARTCHAR udieresis
ENCODING 252
SWIDTH 606 0
DWIDTH 8 0
BBX 7 8 0 0
BITMAP
28
00
CC
44
44
44
6C
36
ENDCHAR
STARTCHAR yacute
ENCODING 253
SWIDTH 506 0
DWIDTH 6 0
BBX 7 12 -1 -3
BITMAP
18
20
00
EE
44
64
28
38
10
10
20
60
ENDCHAR
STARTCHAR thorn
ENCODING 254
SWIDTH 606 0
DWIDTH 8 0
BBX 7 11 0 -3
BITMAP
C0
40
5C
66
42
42
66
5C
40
40
E0
ENDCHAR
STARTCHAR ydieresis
ENCODING 255
SWIDTH 506 0
DWIDTH 6 0
BBX 7 11 -1 -3
BITMAP
28
00
EE
44
64
28
38
10
10
20
60
ENDCHAR
ENDFONT
